<svg fill="#228BE6" xmlns="http://www.w3.org/2000/svg"  viewBox="0 0 24 24" width="24px" height="24px"><path d="M 11 0.99804688 C 8.3907724 0.99804688 6.2933835 2.4790678 5.1054688 4.3710938 C 4.5701825 4.6070081 4.1310951 4.9444265 3.8105469 5.3535156 C 3.1661896 6.1758553 3 7.1515842 3 7.9980469 C 3 8.788942 3.3967213 9.4800931 3.9023438 9.9765625 C 3.9326963 10.006366 3.9668435 10.031705 3.9980469 10.060547 L 4 14 C 4.0004313 15.162474 4.406334 16.183001 5 17.220703 L 5 22.998047 L 7.8183594 22.998047 C 8.9747115 22.998047 9.9748317 22.438906 10.453125 21.621094 C 10.749058 21.115092 10.728037 20.548832 10.791016 19.998047 L 11 19.998047 L 11 22.998047 L 13.818359 22.998047 C 14.974712 22.998047 15.974832 22.438906 16.453125 21.621094 C 16.753804 21.106977 16.883719 20.55644 16.945312 19.996094 A 1.0001 1.0001 0 0 0 17 19.998047 L 21 19.998047 L 21 6.9980469 L 17 6.9980469 C 17 5.5881567 16.52177 4.1174373 15.515625 2.9589844 C 14.50948 1.8005314 12.942724 0.99804686 11 0.99804688 z M 11 2.9980469 C 12.418276 2.9980469 13.352254 3.5189373 14.005859 4.2714844 C 14.659465 5.0240314 15 6.0519371 15 6.9980469 L 15 18.998047 C 15 19.746383 14.885019 20.34039 14.726562 20.611328 C 14.568107 20.882266 14.477007 20.998047 13.818359 20.998047 L 13 20.998047 L 13 17.998047 L 9 17.998047 L 9 18.998047 C 9 19.746383 8.8850192 20.34039 8.7265625 20.611328 C 8.5681058 20.882266 8.4770072 20.998047 7.8183594 20.998047 L 7 20.998047 L 7 16.71875 L 6.8554688 16.480469 C 6.2477846 15.48073 6 14.830091 6 13.998047 L 5.9980469 11.228516 C 7.2906409 11.734033 8.743557 11.998047 10 11.998047 C 11.434328 11.998047 12.604688 11.304713 13.220703 10.316406 C 13.836719 9.3280997 14 8.156986 14 6.9980469 C 14 6.1891859 13.488903 5.501668 12.919922 5.1152344 C 12.350941 4.7288007 11.698154 4.5168469 11.009766 4.3613281 C 10.01259 4.1360489 8.9832334 4.0654416 8.046875 4.0332031 C 8.8530214 3.4032392 9.8539477 2.9980469 11 2.9980469 z M 7 5.9980469 C 8.0163223 5.9980469 9.473839 6.0647879 10.570312 6.3125 C 11.11855 6.4363562 11.570075 6.6154961 11.796875 6.7695312 C 12.023675 6.9235665 12 6.9244078 12 6.9980469 C 12 7.9431077 11.826172 8.7740724 11.523438 9.2597656 C 11.220702 9.7454589 10.890672 9.9980469 10 9.9980469 C 8.9647456 9.9980469 7.5457687 9.7328457 6.5 9.2851562 C 5.9771156 9.0613116 5.5497682 8.79139 5.3027344 8.5488281 C 5.0557006 8.3062663 5 8.1486517 5 7.9980469 C 5 7.4325096 5.1303729 6.9105978 5.3847656 6.5859375 C 5.5037573 6.4340784 5.6565215 6.2976865 5.8789062 6.1933594 A 1.0001 1.0001 0 0 0 6.2304688 6.0839844 C 6.4394165 6.0346788 6.6785162 5.9980469 7 5.9980469 z M 17 8.9980469 L 19 8.9980469 L 19 17.998047 L 17 17.998047 L 17 8.9980469 z"/></svg>