<svg width="604" height="482" viewBox="0 0 604 482" fill="none" xmlns="http://www.w3.org/2000/svg">
<path d="M230.5 304.001L281 347.001C291.241 353.926 296.934 353.952 307 347.001L357.5 304.001C418.5 251.001 443 215.001 443 152.501C440 66.5009 376.983 0.714148 294 1.00093C212.4 1.28294 150.58 64.5009 146 148.501C142.538 212.001 169.5 251.001 230.5 304.001Z" fill="url(#paint0_linear_1_94)" stroke="black"/>
<path d="M270.584 279.001C264.5 260.501 261.416 244.501 259 239.501C257.793 237.004 232.5 232.501 208.5 207.001C184.5 181.501 179 143.001 185.584 112.001C196.883 58.8781 245.084 25.001 294.584 25.001C344.084 25.001 390.084 60.001 403.084 112.001C408.914 135.32 406.12 167.692 390.084 193.001C370.5 232.501 317.821 244.637 296.584 242.501C290.5 247.501 283.5 278.001 278.084 283.501C274.584 285.501 272.5 282.501 270.584 279.001Z" fill="white" stroke="black"/>
<g filter="url(#filter0_dd_1_94)">
<path d="M349 150.001C300 162.501 295.756 216.215 302.5 227.501C331.011 230.049 367 203.501 372 193.501C371.156 167.659 364.5 158.001 349 150.001Z" fill="#199C97"/>
<path d="M238.5 150.001C223.866 155.401 214.5 172.001 216 193.001C220.5 212.501 257 221.001 266.5 227.501C276 234.001 277 246.501 277 246.501L285 227.501C297.5 193.001 270.5 155.001 238.5 150.001Z" fill="#199C97"/>
<path d="M349 150.001C300 162.501 295.756 216.215 302.5 227.501C331.011 230.049 367 203.501 372 193.501C371.156 167.659 364.5 158.001 349 150.001Z" stroke="black"/>
<path d="M238.5 150.001C223.866 155.401 214.5 172.001 216 193.001C220.5 212.501 257 221.001 266.5 227.501C276 234.001 277 246.501 277 246.501L285 227.501C297.5 193.001 270.5 155.001 238.5 150.001Z" stroke="black"/>
</g>
<g filter="url(#filter1_dd_1_94)">
<path d="M238.5 150.001C223.866 155.401 214.5 172.001 216 193.001C220.5 212.501 257 221.001 266.5 227.501C276 234.001 277 246.501 277 246.501L285 227.501C297.5 193.001 270.5 155.001 238.5 150.001Z" fill="#03304F"/>
<path d="M238.5 150.001C223.866 155.401 214.5 172.001 216 193.001C220.5 212.501 257 221.001 266.5 227.501C276 234.001 277 246.501 277 246.501L285 227.501C297.5 193.001 270.5 155.001 238.5 150.001Z" stroke="black"/>
</g>
<path d="M227.5 141.001C212.874 150.737 208.42 158.228 204 173.501C198.18 156.035 193.534 127.893 204.5 102.001C222.5 59.501 260 40.001 294 40.001C328 40.001 365.5 59.501 383.5 102.001C394.466 127.893 389.82 156.035 384 173.501C379.58 158.228 375.126 150.737 360.5 141.001C373 127.001 373.106 96.4122 355 82.001C336.238 67.0672 313 67.001 294.5 92.501C276 67.001 251.762 67.0672 233 82.001C214.894 96.4122 215 127.001 227.5 141.001Z" fill="url(#paint1_linear_1_94)" stroke="black"/>
<g filter="url(#filter2_ddd_1_94)">
<circle cx="258.5" cy="113.501" r="26.5" fill="#03304F"/>
<circle cx="258.5" cy="113.501" r="26" stroke="black"/>
</g>
<g filter="url(#filter3_ddd_1_94)">
<circle cx="330.5" cy="113.501" r="26.5" fill="#149398"/>
<circle cx="330.5" cy="113.501" r="26" stroke="black"/>
</g>
<path d="M273.5 153.001C283.412 146.706 287.975 142.297 294.5 133.001C300.285 141.777 304.944 146.069 316 152.501C305.71 159.404 301.234 165.362 294.5 178.001C288.34 166.586 283.886 160.997 273.5 153.001Z" fill="#6ACBDE" stroke="black"/>
<path d="M155.5 157.001C152.305 152.422 150.211 151.972 146 154.501C144.511 153.881 142.645 176.483 151 200.501C164 249.001 229 304.501 240.5 314.501C252 324.501 284 349.501 288 351.001C292 352.501 293.723 353.468 298.5 351.501C313.794 345.201 386.042 280.001 405.5 256.501C423.134 235.203 435 211.501 437.5 198.001C430.296 195.721 425.92 197.27 421 203.001C404.322 238.817 379.741 265.06 298.5 327.001C294.399 328.333 292.1 328.439 288 327.001C196.365 260.225 166.143 222.993 155.5 157.001Z" fill="#032C49" stroke="black"/>
<path d="M417 182.501C418 178.501 426 179.501 426 182.501C427 201.501 398.795 243.872 364.5 273.001C361.354 272.593 358.5 270.501 359.5 266.501C389.5 243.001 412 201.001 417 182.501Z" fill="white" stroke="black"/>
<g filter="url(#filter4_ddd_1_94)">
<path d="M4.49023 380.78H13.4053L23.416 442.737L43.5371 380.78H52.751L74.3164 442.737L85.6221 380.78H94.1387L80.7412 452.001H68.1904L48.0693 392.335L28.5957 452.001H16.1943L4.49023 380.78ZM101.609 436.213C101.609 425.488 108.682 420.126 122.826 420.126C127.375 420.126 131.924 420.458 136.473 421.122V416.191C136.473 410.182 131.774 407.177 122.378 407.177C116.999 407.177 111.487 408.007 105.843 409.667V402.196C111.487 400.536 116.999 399.706 122.378 399.706C137.917 399.706 145.687 405.118 145.687 415.942V452.001H140.507L137.319 446.821C132.106 450.274 126.429 452.001 120.286 452.001C107.835 452.001 101.609 446.738 101.609 436.213ZM122.826 427.597C114.824 427.597 110.823 430.419 110.823 436.063C110.823 441.708 113.978 444.53 120.286 444.53C126.661 444.53 132.057 442.837 136.473 439.45V428.593C131.924 427.929 127.375 427.597 122.826 427.597ZM170.888 399.706V452.001H161.674V399.706H170.888ZM170.888 380.78V389.496H161.674V380.78H170.888ZM186.875 391.239H192.652L194.645 399.706H208.789V407.177H196.089V437.209C196.089 442.09 198.197 444.53 202.414 444.53H208.789V452.001H200.023C191.258 452.001 186.875 447.303 186.875 437.906V391.239ZM230.753 399.706V452.001H221.539V399.706H230.753ZM230.753 380.78V389.496H221.539V380.78H230.753ZM246.74 452.001V399.706H252.966L254.609 406.38C259.955 401.931 265.832 399.706 272.24 399.706C285.289 399.706 291.813 406.197 291.813 419.18V452.001H282.6V419.03C282.6 411.261 278.731 407.376 270.995 407.376C265.716 407.376 260.702 409.584 255.954 414V452.001H246.74ZM341.768 408.571C338.613 407.774 334.712 407.376 330.063 407.376C318.94 407.376 313.379 413.402 313.379 425.455C313.379 437.84 318.642 444.032 329.167 444.032C333.948 444.032 338.148 443.136 341.768 441.343V408.571ZM350.981 452.001C350.981 464.618 342.963 470.927 326.926 470.927C320.484 470.927 314.773 470.097 309.793 468.437V460.966C314.873 462.626 320.617 463.456 327.025 463.456C336.854 463.456 341.768 459.638 341.768 452.001V449.511C337.85 451.171 333.633 452.001 329.117 452.001C312.582 452.001 304.314 443.186 304.314 425.555C304.314 408.322 313.03 399.706 330.462 399.706C337.534 399.706 344.374 400.42 350.981 401.848V452.001ZM408.157 452.001H398.943V435.067H361.49V427.597L390.128 380.78H399.79L371.103 427.597H398.943V402.296H408.157V427.597L415.528 431.382V435.067H408.157V452.001ZM420.509 380.78H430.719L451.238 417.984L472.057 380.78H482.765L455.571 427.099V452.001H446.357V427.099L420.509 380.78ZM498.204 425.654C498.204 438.238 503.434 444.53 513.893 444.53C524.352 444.53 529.581 438.238 529.581 425.654C529.581 413.336 524.352 407.177 513.893 407.177C503.434 407.177 498.204 413.336 498.204 425.654ZM488.99 425.854C488.99 408.422 497.291 399.706 513.893 399.706C530.494 399.706 538.795 408.422 538.795 425.854C538.795 443.252 530.494 451.951 513.893 451.951C497.357 451.951 489.057 443.252 488.99 425.854ZM596.319 399.706V452.001H589.994L588.4 445.327C582.059 449.776 575.684 452.001 569.275 452.001C557.256 452.001 551.246 445.51 551.246 432.527V399.706H560.46V432.677C560.46 440.446 564.312 444.331 572.015 444.331C577.294 444.331 582.324 442.123 587.105 437.707V399.706H596.319Z" fill="#083052"/>
</g>
<defs>
<filter id="filter0_dd_1_94" x="211.343" y="149.469" width="165.161" height="105.226" filterUnits="userSpaceOnUse" color-interpolation-filters="sRGB">
<feFlood flood-opacity="0" result="BackgroundImageFix"/>
<feColorMatrix in="SourceAlpha" type="matrix" values="0 0 0 0 0 0 0 0 0 0 0 0 0 0 0 0 0 0 127 0" result="hardAlpha"/>
<feOffset dy="4"/>
<feGaussianBlur stdDeviation="2"/>
<feComposite in2="hardAlpha" operator="out"/>
<feColorMatrix type="matrix" values="0 0 0 0 0 0 0 0 0 0 0 0 0 0 0 0 0 0 0.25 0"/>
<feBlend mode="normal" in2="BackgroundImageFix" result="effect1_dropShadow_1_94"/>
<feColorMatrix in="SourceAlpha" type="matrix" values="0 0 0 0 0 0 0 0 0 0 0 0 0 0 0 0 0 0 127 0" result="hardAlpha"/>
<feOffset dy="4"/>
<feGaussianBlur stdDeviation="2"/>
<feComposite in2="hardAlpha" operator="out"/>
<feColorMatrix type="matrix" values="0 0 0 0 0 0 0 0 0 0 0 0 0 0 0 0 0 0 0.25 0"/>
<feBlend mode="normal" in2="effect1_dropShadow_1_94" result="effect2_dropShadow_1_94"/>
<feBlend mode="normal" in="SourceGraphic" in2="effect2_dropShadow_1_94" result="shape"/>
</filter>
<filter id="filter1_dd_1_94" x="211.343" y="149.487" width="81.2773" height="105.208" filterUnits="userSpaceOnUse" color-interpolation-filters="sRGB">
<feFlood flood-opacity="0" result="BackgroundImageFix"/>
<feColorMatrix in="SourceAlpha" type="matrix" values="0 0 0 0 0 0 0 0 0 0 0 0 0 0 0 0 0 0 127 0" result="hardAlpha"/>
<feOffset dy="4"/>
<feGaussianBlur stdDeviation="2"/>
<feComposite in2="hardAlpha" operator="out"/>
<feColorMatrix type="matrix" values="0 0 0 0 0 0 0 0 0 0 0 0 0 0 0 0 0 0 0.25 0"/>
<feBlend mode="normal" in2="BackgroundImageFix" result="effect1_dropShadow_1_94"/>
<feColorMatrix in="SourceAlpha" type="matrix" values="0 0 0 0 0 0 0 0 0 0 0 0 0 0 0 0 0 0 127 0" result="hardAlpha"/>
<feOffset dy="4"/>
<feGaussianBlur stdDeviation="2"/>
<feComposite in2="hardAlpha" operator="out"/>
<feColorMatrix type="matrix" values="0 0 0 0 0 0 0 0 0 0 0 0 0 0 0 0 0 0 0.25 0"/>
<feBlend mode="normal" in2="effect1_dropShadow_1_94" result="effect2_dropShadow_1_94"/>
<feBlend mode="normal" in="SourceGraphic" in2="effect2_dropShadow_1_94" result="shape"/>
</filter>
<filter id="filter2_ddd_1_94" x="228" y="87.001" width="61" height="61" filterUnits="userSpaceOnUse" color-interpolation-filters="sRGB">
<feFlood flood-opacity="0" result="BackgroundImageFix"/>
<feColorMatrix in="SourceAlpha" type="matrix" values="0 0 0 0 0 0 0 0 0 0 0 0 0 0 0 0 0 0 127 0" result="hardAlpha"/>
<feOffset dy="4"/>
<feGaussianBlur stdDeviation="2"/>
<feComposite in2="hardAlpha" operator="out"/>
<feColorMatrix type="matrix" values="0 0 0 0 0 0 0 0 0 0 0 0 0 0 0 0 0 0 0.25 0"/>
<feBlend mode="normal" in2="BackgroundImageFix" result="effect1_dropShadow_1_94"/>
<feColorMatrix in="SourceAlpha" type="matrix" values="0 0 0 0 0 0 0 0 0 0 0 0 0 0 0 0 0 0 127 0" result="hardAlpha"/>
<feOffset dy="4"/>
<feGaussianBlur stdDeviation="2"/>
<feComposite in2="hardAlpha" operator="out"/>
<feColorMatrix type="matrix" values="0 0 0 0 0 0 0 0 0 0 0 0 0 0 0 0 0 0 0.25 0"/>
<feBlend mode="normal" in2="effect1_dropShadow_1_94" result="effect2_dropShadow_1_94"/>
<feColorMatrix in="SourceAlpha" type="matrix" values="0 0 0 0 0 0 0 0 0 0 0 0 0 0 0 0 0 0 127 0" result="hardAlpha"/>
<feOffset dy="4"/>
<feGaussianBlur stdDeviation="2"/>
<feComposite in2="hardAlpha" operator="out"/>
<feColorMatrix type="matrix" values="0 0 0 0 0 0 0 0 0 0 0 0 0 0 0 0 0 0 0.25 0"/>
<feBlend mode="normal" in2="effect2_dropShadow_1_94" result="effect3_dropShadow_1_94"/>
<feBlend mode="normal" in="SourceGraphic" in2="effect3_dropShadow_1_94" result="shape"/>
</filter>
<filter id="filter3_ddd_1_94" x="300" y="87.001" width="61" height="61" filterUnits="userSpaceOnUse" color-interpolation-filters="sRGB">
<feFlood flood-opacity="0" result="BackgroundImageFix"/>
<feColorMatrix in="SourceAlpha" type="matrix" values="0 0 0 0 0 0 0 0 0 0 0 0 0 0 0 0 0 0 127 0" result="hardAlpha"/>
<feOffset dy="4"/>
<feGaussianBlur stdDeviation="2"/>
<feComposite in2="hardAlpha" operator="out"/>
<feColorMatrix type="matrix" values="0 0 0 0 0 0 0 0 0 0 0 0 0 0 0 0 0 0 0.25 0"/>
<feBlend mode="normal" in2="BackgroundImageFix" result="effect1_dropShadow_1_94"/>
<feColorMatrix in="SourceAlpha" type="matrix" values="0 0 0 0 0 0 0 0 0 0 0 0 0 0 0 0 0 0 127 0" result="hardAlpha"/>
<feOffset dy="4"/>
<feGaussianBlur stdDeviation="2"/>
<feComposite in2="hardAlpha" operator="out"/>
<feColorMatrix type="matrix" values="0 0 0 0 0 0 0 0 0 0 0 0 0 0 0 0 0 0 0.25 0"/>
<feBlend mode="normal" in2="effect1_dropShadow_1_94" result="effect2_dropShadow_1_94"/>
<feColorMatrix in="SourceAlpha" type="matrix" values="0 0 0 0 0 0 0 0 0 0 0 0 0 0 0 0 0 0 127 0" result="hardAlpha"/>
<feOffset dy="4"/>
<feGaussianBlur stdDeviation="2"/>
<feComposite in2="hardAlpha" operator="out"/>
<feColorMatrix type="matrix" values="0 0 0 0 0 0 0 0 0 0 0 0 0 0 0 0 0 0 0.25 0"/>
<feBlend mode="normal" in2="effect2_dropShadow_1_94" result="effect3_dropShadow_1_94"/>
<feBlend mode="normal" in="SourceGraphic" in2="effect3_dropShadow_1_94" result="shape"/>
</filter>
<filter id="filter4_ddd_1_94" x="0.490234" y="380.78" width="599.829" height="98.1465" filterUnits="userSpaceOnUse" color-interpolation-filters="sRGB">
<feFlood flood-opacity="0" result="BackgroundImageFix"/>
<feColorMatrix in="SourceAlpha" type="matrix" values="0 0 0 0 0 0 0 0 0 0 0 0 0 0 0 0 0 0 127 0" result="hardAlpha"/>
<feOffset dy="4"/>
<feGaussianBlur stdDeviation="2"/>
<feComposite in2="hardAlpha" operator="out"/>
<feColorMatrix type="matrix" values="0 0 0 0 0 0 0 0 0 0 0 0 0 0 0 0 0 0 0.25 0"/>
<feBlend mode="normal" in2="BackgroundImageFix" result="effect1_dropShadow_1_94"/>
<feColorMatrix in="SourceAlpha" type="matrix" values="0 0 0 0 0 0 0 0 0 0 0 0 0 0 0 0 0 0 127 0" result="hardAlpha"/>
<feOffset dy="4"/>
<feGaussianBlur stdDeviation="2"/>
<feComposite in2="hardAlpha" operator="out"/>
<feColorMatrix type="matrix" values="0 0 0 0 0 0 0 0 0 0 0 0 0 0 0 0 0 0 0.25 0"/>
<feBlend mode="normal" in2="effect1_dropShadow_1_94" result="effect2_dropShadow_1_94"/>
<feColorMatrix in="SourceAlpha" type="matrix" values="0 0 0 0 0 0 0 0 0 0 0 0 0 0 0 0 0 0 127 0" result="hardAlpha"/>
<feOffset dy="4"/>
<feGaussianBlur stdDeviation="2"/>
<feComposite in2="hardAlpha" operator="out"/>
<feColorMatrix type="matrix" values="0 0 0 0 0 0 0 0 0 0 0 0 0 0 0 0 0 0 0.25 0"/>
<feBlend mode="normal" in2="effect2_dropShadow_1_94" result="effect3_dropShadow_1_94"/>
<feBlend mode="normal" in="SourceGraphic" in2="effect3_dropShadow_1_94" result="shape"/>
</filter>
<linearGradient id="paint0_linear_1_94" x1="294.353" y1="1" x2="294.353" y2="352.204" gradientUnits="userSpaceOnUse">
<stop stop-color="#2AF6A8"/>
<stop offset="0.0001" stop-color="#2AF6A8"/>
<stop offset="0.795" stop-color="#097F9B"/>
</linearGradient>
<linearGradient id="paint1_linear_1_94" x1="294" y1="40.001" x2="294" y2="173.501" gradientUnits="userSpaceOnUse">
<stop stop-color="#8AF5FF"/>
<stop offset="1" stop-color="#66C8D9"/>
</linearGradient>
</defs>
</svg>
