<svg fill="#FA5252" xmlns="http://www.w3.org/2000/svg"  viewBox="0 0 24 24" width="24px" height="24px"><path d="M 8.4375 1.90625 C 8.265625 1.914063 8.113281 1.9375 8 2 C 6.601563 2.800781 6 8 6 8 L 18 8 C 18 8 17.398438 2.800781 16 2 C 15.101563 1.5 12 3 12 3 C 12 3 9.632813 1.859375 8.4375 1.90625 Z M 2 9 C 2 9.898438 3.3125 10.6875 5.3125 11.1875 C 4.511719 11.789063 4 12.804688 4 13.90625 C 4 15.105469 4.90625 16.101563 5.90625 16.5 C 7.007813 20.101563 9.800781 22 12 22 C 14.300781 22 17.09375 19.898438 18.09375 16.5 C 19.09375 16.101563 20 15.105469 20 13.90625 C 20 12.804688 19.488281 11.789063 18.6875 11.1875 C 20.6875 10.6875 22 9.898438 22 9 Z M 17.3125 11.5 L 17.3125 12.6875 C 17.511719 12.6875 18 13.207031 18 13.90625 C 18 14.207031 17.492188 14.585938 17.09375 14.6875 L 16.40625 14.8125 L 16.3125 15.5 C 15.710938 18.199219 13.601563 20 12 20 C 10.398438 20 8.414063 18.300781 7.8125 15.5 L 7.6875 14.8125 L 7 14.6875 C 6.5 14.585938 6 14.207031 6 13.90625 C 6 13.304688 6.3125 12.6875 6.8125 12.6875 L 6.6875 11.59375 C 8.289063 11.792969 10.101563 12 12 12 C 13.898438 12 15.710938 11.800781 17.3125 11.5 Z M 8.3125 13 C 8.3125 13 8.398438 14.199219 9 14.5 C 10.398438 15.101563 11 13.6875 11 13.6875 Z M 15.59375 13 L 13 13.6875 C 13 13.6875 13.699219 15.300781 15 14.5 C 15.601563 14.101563 15.59375 13 15.59375 13 Z M 10 17 C 10 18 10.800781 19 12 19 C 13.300781 19 14 18 14 17 L 13.5 17 L 13 18 L 12.5 17 L 12 18 L 11.5 17 L 11 18 L 10.5 17 Z"/></svg>